<?xml version="1.0" encoding="UTF-8"?>
<svg width="40px" height="40px" viewBox="0 0 40 40" version="1.1" xmlns="http://www.w3.org/2000/svg" xmlns:xlink="http://www.w3.org/1999/xlink">
    <title>Fleur-de-lis</title>
    <g id="Fleur-de-lis" stroke="none" stroke-width="1" fill="none" fill-rule="evenodd">
        <path d="M20,2 C20,2 18,6 16,8 C14,10 12,12 12,14 C12,16 14,18 16,18 C18,18 20,16 20,16 C20,16 22,18 24,18 C26,18 28,16 28,14 C28,12 26,10 24,8 C22,6 20,2 20,2 Z M20,18 C20,18 16,20 16,24 C16,26 18,28 20,28 C22,28 24,26 24,24 C24,20 20,18 20,18 Z M20,28 C18,28 16,28 14,30 C12,32 12,36 12,36 C12,36 16,34 20,34 C24,34 28,36 28,36 C28,36 28,32 26,30 C24,28 22,28 20,28 Z" id="Shape" fill="#D4AF37"></path>
    </g>
</svg> 